<?xml version="1.0" encoding="UTF-8"?>
<svg version="1.1" xmlns="http://www.w3.org/2000/svg" width="1121" height="785">
<path d="M0 0 C107.64462979 -0.10628051 215.28983033 -0.1358979 322.93388391 0.27647394 C330.78885905 0.30587095 338.64383259 0.32767841 346.49884033 0.34616089 C356.08176228 0.36886014 365.6645789 0.40204785 375.24741584 0.44860125 C380.11269612 0.47202325 384.97787907 0.49118727 389.84321404 0.49763107 C414.24031232 0.53429557 438.28412112 1.02969981 462.1875 6.5625 C463.28006104 6.81153076 464.37262207 7.06056152 465.49829102 7.31713867 C486.37814923 12.29401393 506.76851233 19.47052071 526 29 C526.95116699 29.46212891 527.90233398 29.92425781 528.88232422 30.40039062 C603.30390256 66.74775134 660.67201263 131.53662777 687.80957031 209.74682617 C700.64323499 247.35788153 706.44711971 285.81403335 706.3125 325.5 C706.31100952 326.59228912 706.30951904 327.68457825 706.3079834 328.80996704 C706.26578703 346.06056725 705.58370659 362.92051376 703 380 C702.7831958 381.49708496 702.7831958 381.49708496 702.56201172 383.02441406 C694.45799447 437.85890507 672.5362798 489.63156767 638 533 C636.84757813 534.47339844 636.84757813 534.47339844 635.671875 535.9765625 C624.21342386 550.36328449 611.09934525 564.18516405 597 576 C596.5148291 576.42023437 596.0296582 576.84046875 595.52978516 577.2734375 C578.16309553 592.29103474 558.38840116 605.44093107 538 616 C537.07380859 616.48871582 537.07380859 616.48871582 536.12890625 616.98730469 C512.16632549 629.59338628 486.78741205 639.33914731 460.375 645.375 C458.91489502 645.71470825 458.91489502 645.71470825 457.42529297 646.0612793 C453.96450446 646.80407315 450.49058309 647.41806759 447 648 C446.25007188 648.12526711 445.50014376 648.25053422 444.72749054 648.37959731 C424.33711648 651.62075113 404.0042165 651.41400414 383.4212178 651.34819686 C378.26073736 651.33507771 373.10026601 651.33963702 367.93977356 651.34190369 C359.02784431 651.34346652 350.11598164 651.3341618 341.20406914 651.31719017 C328.3194095 651.2926691 315.43478161 651.28498159 302.55010117 651.2812262 C281.63876997 651.27468212 260.72747414 651.25477682 239.81616211 651.22631836 C219.51896337 651.19872461 199.22177429 651.17751714 178.92456055 651.16479492 C177.6706165 651.16400675 176.41667245 651.16321858 175.1247301 651.16240653 C168.83321795 651.15849103 162.54170574 651.1547 156.25019348 651.15097082 C104.16676422 651.11993864 52.08340049 651.06467021 0 651 C0 600.18 0 549.36 0 497 C10.05676127 500.35225376 10.05676127 500.35225376 13.734375 501.83203125 C81.57843338 528.68359771 158.3253568 527.66008679 225.42724609 498.96191406 C255.96616798 485.61163369 282.26396012 465.79497251 305.8125 442.4375 C306.68438965 441.57503662 307.5562793 440.71257324 308.45458984 439.82397461 C314.3905339 433.85808528 319.78571526 427.60243463 325 421 C325.57564697 420.2783667 326.15129395 419.5567334 326.74438477 418.81323242 C344.91646617 395.88000436 359.21503376 370.74280802 371 344 C371.33 344 371.66 344 372 344 C372 377.99 372 411.98 372 447 C413.91 447 455.82 447 499 447 C499 342.39 499 237.78 499 130 C393.07 130 287.14 130 178 130 C178 172.57 178 215.14 178 259 C205.06 259 232.12 259 260 259 C260 294.22986227 241.92277825 327.19119292 218 352 C217.28457031 352.77859375 216.56914062 353.5571875 215.83203125 354.359375 C193.06733838 378.44809316 158.21856933 392.16922211 125.375 393.23828125 C84.04804494 393.96012106 44.17490097 382.11781845 14 353 C0.23378222 339.67154422 0.23378222 339.67154422 -0.37259549 335.33594012 C-0.37145633 334.31069523 -0.37031717 333.28545034 -0.36914349 332.22913742 C-0.37511663 331.04378552 -0.38108978 329.85843362 -0.38724393 328.63716197 C-0.3785054 327.33367281 -0.36976688 326.03018365 -0.36076355 324.68719482 C-0.36207149 323.28955829 -0.3646977 321.89192248 -0.36853105 320.49429059 C-0.3752503 316.64950213 -0.36322371 312.8049636 -0.34819686 308.96020699 C-0.33526144 304.81572596 -0.33962419 300.67125944 -0.34190369 296.52676392 C-0.343478 289.34476116 -0.33405228 282.16284006 -0.31719017 274.98085785 C-0.29282616 264.59688478 -0.28499756 254.21295126 -0.2812262 243.8289527 C-0.27465763 226.98230024 -0.25468548 210.13569132 -0.22631836 193.2890625 C-0.19878828 176.92252826 -0.17754955 160.55600584 -0.16479492 144.18945312 C-0.16400675 143.18089951 -0.16321858 142.1723459 -0.16240653 141.13323006 C-0.15849146 136.07369659 -0.15470033 131.01416303 -0.15097082 125.95462942 C-0.11986229 83.96972266 -0.06701546 41.98486382 0 0 Z " fill="#593E91" transform="translate(0,0)"/>
<path d="M0 0 C184.14 0 368.28 0 558 0 C558 12.31628401 557.95504431 24.23721765 556.8125 36.4375 C556.74686859 37.15645447 556.68123718 37.87540894 556.61361694 38.6161499 C552.28430526 85.35941677 539.56239455 130.38384818 520 173 C519.58814453 173.89831543 519.17628906 174.79663086 518.75195312 175.72216797 C499.22073271 217.71754164 470.89638853 255.29384955 438.24414062 287.94116211 C436.6285932 289.55890192 435.02124966 291.18450636 433.4140625 292.81054688 C427.65602537 298.59904457 421.775214 303.99369113 415.38037109 309.08959961 C412.4523482 311.43952567 409.73263112 313.92624279 407 316.5 C402.39378392 320.79347152 397.62181915 324.80438947 392.71484375 328.75390625 C389.89326505 331.0883059 387.19409288 333.51990598 384.5 336 C380.05272888 340.09351091 375.45282537 343.92442499 370.75 347.71875 C367.91900422 350.06718968 365.20616402 352.50909902 362.5 355 C358.05272888 359.09351091 353.45282537 362.92442499 348.75 366.71875 C345.91900422 369.06718968 343.20616402 371.50909902 340.5 374 C335.95007576 378.18540956 331.26424835 382.14400133 326.4453125 386.015625 C324.43100008 387.65024275 322.49495425 389.33397308 320.5625 391.0625 C318 393 318 393 314 393 C314.66 393.66 315.32 394.32 316 395 C310.96365529 399.62120133 305.88291427 404.14437033 300.5625 408.4375 C295.788597 412.29825137 291.26611572 416.37437075 286.75 420.53125 C283.18815771 423.72881296 279.47434167 426.71388343 275.75 429.71875 C272.91900422 432.06718968 270.20616402 434.50909902 267.5 437 C263.05272888 441.09351091 258.45282537 444.92442499 253.75 448.71875 C250.91900422 451.06718968 248.20616402 453.50909902 245.5 456 C241.05272888 460.09351091 236.45282537 463.92442499 231.75 467.71875 C228.91900422 470.06718968 226.20616402 472.50909902 223.5 475 C219.05406536 479.09228075 214.4559628 482.92243114 209.75390625 486.71484375 C206.04311242 489.7940131 202.5158487 493.05316562 198.99609375 496.34765625 C194.80209769 500.06046372 190.37387911 503.50089671 186 507 C308.76 507.33 431.52 507.66 558 508 C558 555.19 558 602.38 558 651 C373.86 651 189.72 651 0 651 C0 649.68 0 648.36 0 647 C0.87845581 646.55068115 0.87845581 646.55068115 1.7746582 646.09228516 C24.16509501 634.54109625 45.66017038 621.22213756 65 605 C66.08695137 604.10381699 67.17419791 603.20799187 68.26171875 602.3125 C82.38551768 590.59723315 96.23210339 578.10784516 108 564 C108.67820801 563.19248291 108.67820801 563.19248291 109.37011719 562.36865234 C163.02858099 498.26993153 194.97420166 412.88862028 191.7109375 328.74609375 C191.65686421 327.0306205 191.60347972 325.31512541 191.55078125 323.59960938 C191.47028931 320.99695424 191.37288575 318.40030773 191.22509766 315.80053711 C190.38957321 300.43743837 190.38957321 300.43743837 194.29980469 295.72119141 C197.07792168 293.17403759 199.86575114 291.08522106 203 289 C204.84579701 287.51536384 206.680937 286.01727417 208.5 284.5 C209.4075 283.7678125 210.315 283.035625 211.25 282.28125 C214.08099578 279.93281032 216.79383598 277.49090098 219.5 275 C223.94727112 270.90648909 228.54717463 267.07557501 233.25 263.28125 C236.08099578 260.93281032 238.79383598 258.49090098 241.5 256 C245.94727112 251.90648909 250.54717463 248.07557501 255.25 244.28125 C258.08099578 241.93281032 260.79383598 239.49090098 263.5 237 C267.94727112 232.90648909 272.54717463 229.07557501 277.25 225.28125 C280.08099578 222.93281032 282.79383598 220.49090098 285.5 218 C289.94727112 213.90648909 294.54717463 210.07557501 299.25 206.28125 C302.08099578 203.93281032 304.79383598 201.49090098 307.5 199 C311.94727112 194.90648909 316.54717463 191.07557501 321.25 187.28125 C324.08099578 184.93281032 326.79383598 182.49090098 329.5 180 C333.94727112 175.90648909 338.54717463 172.07557501 343.25 168.28125 C347.02701514 165.14804426 350.60978234 161.81987 354.21875 158.49609375 C357.93307729 155.16258934 361.7927195 152.02937726 365.6875 148.91015625 C367.58047267 147.34653524 369.28399336 145.74784178 371 144 C369.85478189 144.00959496 368.70956379 144.01918991 367.52964211 144.02907562 C339.65323892 144.25896048 311.77753965 144.39663484 283.9002018 144.43784332 C281.21553105 144.44212995 278.53086111 144.44675946 275.84619141 144.45166016 C274.8452795 144.45346968 274.8452795 144.45346968 273.82414715 144.45531577 C263.03128009 144.47648853 252.23952257 144.55406705 241.44711657 144.65263933 C230.36604398 144.75258704 219.2858026 144.790384 208.20426691 144.77444887 C201.9820666 144.76745978 195.76282419 144.78846982 189.54118729 144.87687683 C183.68100469 144.95925827 177.82550104 144.96624223 171.96500015 144.91612434 C169.81793387 144.91091893 167.67059677 144.93294983 165.52414703 144.98466301 C149.72690622 145.34302443 149.72690622 145.34302443 145.17557478 141.43240929 C142.00276129 137.63111499 139.86296015 133.45464033 137.88974261 128.93766689 C136.61715575 126.16624806 134.96559423 123.70197529 133.25 121.1875 C132.60933594 120.23875 131.96867188 119.29 131.30859375 118.3125 C122.26453378 105.24385382 112.70813591 92.74743716 102 81 C101.37383789 80.31212402 100.74767578 79.62424805 100.10253906 78.91552734 C98.13941256 76.76893562 96.16636188 74.63208961 94.1875 72.5 C93.58945557 71.85329346 92.99141113 71.20658691 92.37524414 70.5402832 C88.7150245 66.64375748 84.88922513 63.06234988 80.83276367 59.58105469 C78.51194228 57.57897139 76.29360224 55.47617116 74.0625 53.375 C52.07862928 33.41159476 26.20220761 17.76185513 0 4 C0 2.68 0 1.36 0 0 Z " fill="#F6C011" transform="translate(563,0)"/>
<path d="M0 0 C34.23529412 0 34.23529412 0 42.375 5.125 C49.41126247 12.83138271 49.636398 21.31935461 49.52148438 31.28369141 C49.50003653 33.49623188 49.52136003 35.70552684 49.546875 37.91796875 C49.56546578 47.22815056 48.94133669 54.87951164 42.25 61.875 C28.57446728 70.81669447 18.10548942 67 0 67 C0 44.89 0 22.78 0 0 Z M14 13 C14 26.53 14 40.06 14 54 C25.85133488 55.04986735 25.85133488 55.04986735 34 50 C36.27440469 45.45119063 35.32017974 39.24362732 35.375 34.25 C35.41238281 32.97382812 35.44976562 31.69765625 35.48828125 30.3828125 C35.78847655 22.79756655 35.78847655 22.79756655 32.6640625 16.171875 C26.50694923 11.15229292 23.36365473 13 14 13 Z " fill="#E79325" transform="translate(218,699)"/>
<path d="M0 0 C2.5 2.0625 2.5 2.0625 3.5 4.0625 C4.386875 3.27875 5.27375 2.495 6.1875 1.6875 C10.58046013 -1.90025398 13.70620861 -3.15770944 19.4375 -2.875 C24.66868426 -2.19774847 26.9907822 -0.87467119 30.5 3.0625 C33.30875055 8.44235366 33.91686827 12.60908587 33.79296875 18.62109375 C33.78872391 19.41024673 33.78447906 20.19939972 33.78010559 21.01246643 C33.76344452 23.50867261 33.72581779 26.00404192 33.6875 28.5 C33.67243683 30.20246222 33.65875129 31.90493721 33.64648438 33.60742188 C33.6135825 37.7594322 33.56188951 41.9108247 33.5 46.0625 C29.21 46.0625 24.92 46.0625 20.5 46.0625 C20.45101562 43.94328125 20.40203125 41.8240625 20.3515625 39.640625 C20.29750976 37.58196114 20.2402193 35.523411 20.18261719 33.46484375 C20.14439976 32.03719602 20.10953428 30.60945437 20.078125 29.18164062 C20.03231599 27.12596132 19.9743502 25.07092446 19.9140625 23.015625 C19.8826416 21.77973633 19.8512207 20.54384766 19.81884766 19.27050781 C19.52123928 16.27619383 19.20004743 14.51606998 17.5 12.0625 C14.631446 11.00566431 13.13685855 10.8325233 10.25 11.875 C8.34925076 12.95649368 8.34925076 12.95649368 7.5 15.0625 C7.34479443 17.38523159 7.24980833 19.71209313 7.18359375 22.0390625 C7.16281265 22.72431 7.14203156 23.4095575 7.12062073 24.11557007 C7.05519815 26.30611069 6.99627446 28.49677189 6.9375 30.6875 C6.89430782 32.1718875 6.8506933 33.65626278 6.80664062 35.140625 C6.69872862 38.78112818 6.59960219 42.42172195 6.5 46.0625 C1.88 46.0625 -2.74 46.0625 -7.5 46.0625 C-7.51417969 43.78730469 -7.52835938 41.51210938 -7.54296875 39.16796875 C-7.57358612 36.96363487 -7.61267501 34.75960276 -7.65258789 32.55541992 C-7.67577965 31.02395302 -7.69016644 29.49232637 -7.69555664 27.96069336 C-7.70483892 25.75793788 -7.74580268 23.5576986 -7.79296875 21.35546875 C-7.7890361 20.67099167 -7.78510345 19.98651459 -7.78105164 19.28129578 C-7.7938424 17.10079756 -7.7938424 17.10079756 -8.5 14.0625 C-10.72215976 11.94161332 -10.72215976 11.94161332 -13.5 11.0625 C-16.7598531 11.53759216 -16.7598531 11.53759216 -19.5 13.0625 C-20.64294314 16.49132941 -20.70964472 19.30332838 -20.81640625 22.91796875 C-20.83718735 23.57960526 -20.85796844 24.24124176 -20.87937927 24.92292786 C-20.94464727 27.03184852 -21.00365344 29.14089135 -21.0625 31.25 C-21.10570689 32.68165315 -21.14932188 34.11329404 -21.19335938 35.54492188 C-21.30107185 39.05065796 -21.40031308 42.55648975 -21.5 46.0625 C-25.79 46.0625 -30.08 46.0625 -34.5 46.0625 C-34.5 30.2225 -34.5 14.3825 -34.5 -1.9375 C-30.21 -1.9375 -25.92 -1.9375 -21.5 -1.9375 C-21.17 -0.9475 -20.84 0.0425 -20.5 1.0625 C-19.63375 0.3509375 -19.63375 0.3509375 -18.75 -0.375 C-13.19689464 -4.23132317 -5.58892605 -3.61795213 0 0 Z " fill="#EEB51B" transform="translate(650.5,719.9375)"/>
<path d="M0 0 C4.62710658 2.26515259 6.69714219 5.82707861 8.39135742 10.60327148 C9.55703344 15.19350072 9.47110057 19.78981082 9.4375 24.5 C9.4674707 25.99080078 9.4674707 25.99080078 9.49804688 27.51171875 C9.49386185 33.84784757 8.68575186 38.74054723 5 44 C0.5734685 48.21060314 -2.87521269 49.28683045 -8.99609375 49.23046875 C-12.27370525 48.85351148 -14.69483702 47.30516298 -17 45 C-17.33 52.26 -17.66 59.52 -18 67 C-22.29 67 -26.58 67 -31 67 C-31 44.89 -31 22.78 -31 0 C-26.71 0 -22.42 0 -18 0 C-17.67 0.99 -17.34 1.98 -17 3 C-16.05125 2.319375 -15.1025 1.63875 -14.125 0.9375 C-9.39474049 -1.74905713 -5.14346532 -1.44288631 0 0 Z M-16.19921875 14.06640625 C-18.41249057 17.67197488 -18.47385571 19.86113253 -18.375 24.0625 C-18.36210938 25.27035156 -18.34921875 26.47820313 -18.3359375 27.72265625 C-18.02578534 30.74844305 -17.685902 32.50701725 -16 35 C-13.20129973 36.39935013 -11.09501208 36.25265405 -8 36 C-5.44050454 34.14657225 -5.02081202 33.06243607 -4 30 C-3.8552037 28.04524991 -3.77932498 26.0848862 -3.75 24.125 C-3.72421875 23.09632813 -3.6984375 22.06765625 -3.671875 21.0078125 C-4.04842048 17.55614564 -4.87826565 15.73142813 -7 13 C-12.02303341 11.33438045 -12.02303341 11.33438045 -16.19921875 14.06640625 Z " fill="#EEAF1D" transform="translate(587,718)"/>
<path d="M0 0 C13.86 0 27.72 0 42 0 C42 14.88461538 42 14.88461538 37.25 21.125 C36.2428619 22.55854201 35.23773239 23.99349678 34.234375 25.4296875 C33.44256836 26.53521973 33.44256836 26.53521973 32.63476562 27.66308594 C29.76886885 31.75991448 27.14768381 36.0102716 24.5 40.25 C23.51052495 41.81777668 22.52094795 43.38548902 21.53125 44.953125 C19.64438523 47.94673658 17.82178895 50.96368509 16 54 C24.91 54 33.82 54 43 54 C43 58.29 43 62.58 43 67 C28.48 67 13.96 67 -1 67 C-1 52.37731812 -1 52.37731812 1.9296875 48.04296875 C2.55609131 47.08261719 3.18249512 46.12226562 3.82788086 45.1328125 C4.84120483 43.67488281 4.84120483 43.67488281 5.875 42.1875 C7.24879494 40.10813702 8.62249251 38.02870969 9.99609375 35.94921875 C10.67526855 34.9442334 11.35444336 33.93924805 12.05419922 32.90380859 C14.78350422 28.83074037 17.36280566 24.67167358 19.9375 20.5 C21.278125 18.355 22.61875 16.21 24 14 C16.08 13.67 8.16 13.34 0 13 C0 8.71 0 4.42 0 0 Z " fill="#723F8D" transform="translate(899,699)"/>
<path d="M0 0 C4.62 0 9.24 0 14 0 C14.33 7.26 14.66 14.52 15 22 C16.32 21.01 17.64 20.02 19 19 C23.50114381 17.68543305 27.25305717 17.7883662 31.75 19.0625 C35.84868704 21.50594804 39.11362441 24.22849568 40.62571716 28.95648193 C41.25069913 32.36877288 41.12092284 35.80891413 41.09765625 39.265625 C41.0962413 40.05902283 41.09482635 40.85242065 41.09336853 41.66986084 C41.08778415 44.19661272 41.07523454 46.72327504 41.0625 49.25 C41.05748298 50.96614455 41.05292043 52.68229049 41.04882812 54.3984375 C41.03781984 58.59899269 41.02056596 62.79948117 41 67 C36.71 67 32.42 67 28 67 C27.98018066 66.07662842 27.96036133 65.15325684 27.93994141 64.2019043 C27.86182261 60.77438826 27.77513003 57.34731202 27.68261719 53.92016602 C27.64434653 52.43717788 27.60949022 50.95409752 27.578125 49.47094727 C27.532432 47.33836928 27.47444662 45.20642509 27.4140625 43.07421875 C27.36693115 41.14968872 27.36693115 41.14968872 27.31884766 39.1862793 C27.23620772 35.84612541 27.23620772 35.84612541 25 33 C21.78729228 32.02221939 19.91908064 31.55845436 16.84277344 33.03637695 C14.19145226 35.86157253 14.39723907 38.60825662 14.390625 42.29296875 C14.37408875 42.99899734 14.35755249 43.70502594 14.34051514 44.43244934 C14.29198712 46.68422092 14.27065562 48.93531709 14.25 51.1875 C14.22184401 52.71552886 14.19191709 54.24352619 14.16015625 55.77148438 C14.08289405 59.51463484 14.04242896 63.25564438 14 67 C9.38 67 4.76 67 0 67 C0 44.89 0 22.78 0 0 Z " fill="#32408F" transform="translate(62,699)"/>
<path d="M0 0 C4.8221387 4.07157127 7.55926168 8.74900784 8.21948242 15.11694336 C9.1779045 34.11861551 9.1779045 34.11861551 4 41 C-0.92972855 46.05945825 -6.06650549 47.11545153 -12.9375 47.3125 C-19.59840234 47.18060094 -23.46608648 46.01561302 -28.75 41.8125 C-33.60910067 35.73862416 -34.49047503 29.51870763 -34.375 22 C-34.38660156 21.24460937 -34.39820313 20.48921875 -34.41015625 19.7109375 C-34.37834413 13.53938549 -33.28531252 7.93017793 -29.421875 2.9765625 C-20.77180185 -4.01625364 -9.93161484 -5.21363885 0 0 Z M-19 13 C-21.0493256 15.0493256 -20.32111961 19.01316871 -20.375 21.8125 C-20.41238281 22.53759766 -20.44976563 23.26269531 -20.48828125 24.00976562 C-20.55244632 27.90601152 -20.3583688 29.61276928 -17.671875 32.515625 C-15.05393605 34.26317596 -15.05393605 34.26317596 -11.875 33.9375 C-8.30653718 32.77630261 -8.30653718 32.77630261 -6 30 C-5.70165127 27.23881175 -5.58088847 24.75451984 -5.625 22 C-5.61339844 21.27554688 -5.60179687 20.55109375 -5.58984375 19.8046875 C-5.5983428 15.67528857 -5.5983428 15.67528857 -7.375 12.0546875 C-11.9407467 9.09134229 -14.75561018 9.93460735 -19 13 Z " fill="#753F8D" transform="translate(992,720)"/>
<path d="M0 0 C4.44263814 3.57342633 7.57582619 7.62263536 8.30371094 13.41821289 C8.43965902 16.24322426 8.4583226 19.04691165 8.4375 21.875 C8.4674707 23.30779297 8.4674707 23.30779297 8.49804688 24.76953125 C8.49287343 32.31241005 7.0435994 37.9564006 1.625 43.375 C-5.1872284 47.59209377 -12.48434494 48.04068963 -20.27734375 46.5703125 C-25.66784101 44.89418859 -29.0601267 41.77729411 -32 37 C-35.51832361 27.88434337 -35.33732242 16.31818705 -32.1015625 7.125 C-29.83056251 2.74406384 -26.56123139 0.03656909 -22.01171875 -1.8046875 C-14.34615125 -3.97783868 -7.19779693 -3.38242337 0 0 Z M-19 13 C-21.33584549 17.67169098 -20.50952759 23.92815065 -20 29 C-18.7157849 32.05217042 -18.05129033 32.37697323 -15 34 C-11.35592863 34.33660145 -11.35592863 34.33660145 -8 33 C-5.1522947 29.31047882 -4.61180525 26.54323454 -4.6875 21.9375 C-4.69136719 20.91527344 -4.69523438 19.89304687 -4.69921875 18.83984375 C-4.99728654 16.02561932 -5.47653913 14.36082411 -7 12 C-11.70911592 8.9618607 -14.55632335 9.95958966 -19 13 Z " fill="#EBA920" transform="translate(528,720)"/>
<path d="M0 0 C5.66631698 4.59431107 7.50377232 10.01760417 9 17 C9 20.63 9 24.26 9 28 C-0.24 28.33 -9.48 28.66 -19 29 C-14.74672492 34.27934848 -14.74672492 34.27934848 -10.4375 34.4375 C-7.12376407 34.20828997 -7.12376407 34.20828997 -4.875 32.9375 C-3 32 -3 32 -0.625 31.9375 C3.3547949 33.54836936 5.44752651 36.64055894 8 40 C0.22598297 45.90825294 -6.14220571 48.08048896 -16 47 C-22.0369659 45.43798784 -26.68609946 43.52316756 -30 38 C-30.391875 37.38125 -30.78375 36.7625 -31.1875 36.125 C-34.37311758 27.79338479 -34.00853957 16.35406971 -31 8 C-27.61088745 2.31938522 -23.59286903 -0.93349944 -17.19140625 -2.6015625 C-10.92056759 -3.74171498 -5.54058078 -3.15317605 0 0 Z M-20 15 C-20 15.99 -20 16.98 -20 18 C-14.72 18 -9.44 18 -4 18 C-4.6215554 13.37341703 -4.6215554 13.37341703 -6.125 11.1875 C-11.82394285 7.57816953 -16.30681651 10.18767 -20 15 Z " fill="#E69825" transform="translate(319,720)"/>
<path d="M0 0 C5.6422461 5.04439221 8.15308385 10.51890733 9 18 C9 21.3 9 24.6 9 28 C-0.24 28.33 -9.48 28.66 -19 29 C-14.74672492 34.27934848 -14.74672492 34.27934848 -10.4375 34.4375 C-7.12376407 34.20828997 -7.12376407 34.20828997 -4.875 32.9375 C-3 32 -3 32 -0.625 31.9375 C3.3547949 33.54836936 5.44752651 36.64055894 8 40 C0.16445874 45.95501136 -6.09017425 47.91496971 -16 47 C-21.0996064 45.8198546 -25.27008001 43.72991999 -29 40 C-34.32236618 31.44619721 -34.03073705 20.04068185 -31.875 10.4296875 C-30.01140039 5.25487073 -26.65924068 1.39293559 -21.78515625 -1.16015625 C-14.34136872 -3.89590722 -6.97157962 -4.03022351 0 0 Z M-20 15 C-20 15.99 -20 16.98 -20 18 C-14.72 18 -9.44 18 -4 18 C-4.6215554 13.37341703 -4.6215554 13.37341703 -6.125 11.1875 C-11.82394285 7.57816953 -16.30681651 10.18767 -20 15 Z " fill="#3B408E" transform="translate(155,720)"/>
<path d="M0 0 C4.25179735 3.17282365 5.77865565 7.16913646 7.1171875 12.09765625 C7.47108609 14.92482859 7.47098943 17.6895484 7.41015625 20.53515625 C7.40591141 21.30069824 7.40166656 22.06624023 7.39729309 22.85498047 C7.38067078 25.26958312 7.34305256 27.68331136 7.3046875 30.09765625 C7.28961928 31.74738367 7.27593464 33.39712434 7.26367188 35.046875 C7.23082167 39.06413245 7.17915723 43.08074677 7.1171875 47.09765625 C2.4971875 47.09765625 -2.1228125 47.09765625 -6.8828125 47.09765625 C-6.94339844 44.81085937 -7.00398437 42.5240625 -7.06640625 40.16796875 C-7.12818603 37.95716003 -7.19157769 35.74640301 -7.25512695 33.53564453 C-7.29848176 31.99727972 -7.34015645 30.45886662 -7.38012695 28.92041016 C-7.43781648 26.71111485 -7.50151429 24.50206277 -7.56640625 22.29296875 C-7.58311874 21.60333038 -7.59983124 20.91369202 -7.61705017 20.20315552 C-7.69088245 16.52651361 -7.69088245 16.52651361 -8.8828125 13.09765625 C-12.43973927 12.2470868 -14.37551828 11.92855818 -17.8828125 13.09765625 C-19.35487263 16.04177652 -19.12088442 19.0605154 -19.19921875 22.29296875 C-19.21999985 23.00041229 -19.24078094 23.70785583 -19.26219177 24.43673706 C-19.32762328 26.6986105 -19.38654224 28.96060087 -19.4453125 31.22265625 C-19.48850383 32.75522047 -19.53211832 34.28777282 -19.57617188 35.8203125 C-19.68409539 39.57930893 -19.78321533 43.338393 -19.8828125 47.09765625 C-24.5028125 47.09765625 -29.1228125 47.09765625 -33.8828125 47.09765625 C-33.8828125 31.25765625 -33.8828125 15.41765625 -33.8828125 -0.90234375 C-29.2628125 -0.90234375 -24.6428125 -0.90234375 -19.8828125 -0.90234375 C-19.5528125 0.08765625 -19.2228125 1.07765625 -18.8828125 2.09765625 C-18.2846875 1.62328125 -17.6865625 1.14890625 -17.0703125 0.66015625 C-12.07175815 -2.91023972 -5.47006317 -2.6215448 0 0 Z " fill="#EBBC1B" transform="translate(797.8828125,718.90234375)"/>
<path d="M0 0 C6.99329743 7.77456499 6.43359375 16.37360988 6.43359375 26.59375 C-2.80640625 26.59375 -12.04640625 26.59375 -21.56640625 26.59375 C-19.28616941 31.57252916 -19.28616941 31.57252916 -16.48046875 32.37109375 C-11.85443197 32.69475844 -8.85874074 32.55596005 -4.56640625 30.59375 C-0.32173763 30.73067479 2.40820764 33.91215776 5.43359375 36.59375 C4.15527942 40.57072791 1.75234643 41.84483607 -1.71484375 43.76171875 C-8.14273248 46.65020039 -16.20947009 46.62588987 -22.87890625 44.53125 C-27.98186669 42.32031642 -31.14217511 38.26236057 -33.7109375 33.44921875 C-34.93108055 29.37650383 -34.89536161 25.51027836 -34.87890625 21.28125 C-34.90307617 20.05631836 -34.90307617 20.05631836 -34.92773438 18.80664062 C-34.93284503 12.39277402 -34.02747529 6.82117724 -30.0234375 1.5703125 C-21.61165648 -5.34293271 -8.96124377 -7.39248886 0 0 Z M-19.94140625 10.34375 C-21.85655522 12.70207228 -21.85655522 12.70207228 -22.56640625 16.59375 C-16.95640625 16.59375 -11.34640625 16.59375 -5.56640625 16.59375 C-7.57791888 9.81885108 -7.57791888 9.81885108 -10.56640625 8.59375 C-15.59971093 8.09502542 -15.59971093 8.09502542 -19.94140625 10.34375 Z " fill="#E8A024" transform="translate(433.56640625,721.40625)"/>
<path d="M0 0 C5.66631698 4.59431107 7.50377232 10.01760417 9 17 C9 20.63 9 24.26 9 28 C-0.24 28.33 -9.48 28.66 -19 29 C-14.74672492 34.27934848 -14.74672492 34.27934848 -10.4375 34.4375 C-7.12376407 34.20828997 -7.12376407 34.20828997 -4.875 32.9375 C-3 32 -3 32 -0.625 31.9375 C3.3547949 33.54836936 5.44752651 36.64055894 8 40 C0.213403 45.91781372 -6.13201714 48.05632879 -16 47 C-21.43614153 45.71411383 -25.68075321 44.01109451 -29.0625 39.4375 C-32.27746928 33.73352224 -32.24685821 29.19725788 -32.3125 22.8125 C-32.34150391 21.89146484 -32.37050781 20.97042969 -32.40039062 20.02148438 C-32.46378488 13.15052269 -31.28855061 7.73432394 -26.65820312 2.47631836 C-19.24169351 -4.33815387 -8.56155019 -4.87242694 0 0 Z M-19 13 C-19.33 14.65 -19.66 16.3 -20 18 C-14.72 18 -9.44 18 -4 18 C-4.6215554 13.37341703 -4.6215554 13.37341703 -6.125 11.1875 C-10.47952235 8.42963584 -15.62366418 9.23408697 -19 13 Z " fill="#78408D" transform="translate(1112,720)"/>
<path d="M0 0 C5.66631698 4.59431107 7.50377232 10.01760417 9 17 C9 20.63 9 24.26 9 28 C-0.24 28.33 -9.48 28.66 -19 29 C-14.74672492 34.27934848 -14.74672492 34.27934848 -10.4375 34.4375 C-7.12376407 34.20828997 -7.12376407 34.20828997 -4.875 32.9375 C-3 32 -3 32 -0.625 31.9375 C3.3547949 33.54836936 5.44752651 36.64055894 8 40 C0.213403 45.91781372 -6.13201714 48.05632879 -16 47 C-21.43614153 45.71411383 -25.68075321 44.01109451 -29.0625 39.4375 C-32.27746928 33.73352224 -32.24685821 29.19725788 -32.3125 22.8125 C-32.34150391 21.89146484 -32.37050781 20.97042969 -32.40039062 20.02148438 C-32.46378488 13.15052269 -31.28855061 7.73432394 -26.65820312 2.47631836 C-19.24169351 -4.33815387 -8.56155019 -4.87242694 0 0 Z M-19 13 C-19.33 14.65 -19.66 16.3 -20 18 C-14.72 18 -9.44 18 -4 18 C-4.6215554 13.37341703 -4.6215554 13.37341703 -6.125 11.1875 C-10.47952235 8.42963584 -15.62366418 9.23408697 -19 13 Z " fill="#ECB81C" transform="translate(736,720)"/>
<path d="M0 0 C16.5 0 33 0 50 0 C50 4.29 50 8.58 50 13 C44.06 13 38.12 13 32 13 C32 30.82 32 48.64 32 67 C27.38 67 22.76 67 18 67 C18 49.18 18 31.36 18 13 C12.06 13 6.12 13 0 13 C0 8.71 0 4.42 0 0 Z " fill="#2C408E" transform="translate(0,699)"/>
<path d="M0 0 C4.73782126 2.72338266 7.35112169 5.79130034 9 11 C9.16585708 13.89572199 9.23341501 16.68990202 9.1953125 19.58203125 C9.1924826 20.39621017 9.18965271 21.2103891 9.18673706 22.04924011 C9.17558584 24.637146 9.15049083 27.22469958 9.125 29.8125 C9.11496365 31.57226061 9.10583894 33.33202667 9.09765625 35.09179688 C9.0756631 39.39466598 9.04116836 43.69727336 9 48 C4.71 48 0.42 48 -4 48 C-4.01981934 47.07662842 -4.03963867 46.15325684 -4.06005859 45.2019043 C-4.13817739 41.77438826 -4.22486997 38.34731202 -4.31738281 34.92016602 C-4.35565347 33.43717788 -4.39050978 31.95409752 -4.421875 30.47094727 C-4.467568 28.33836928 -4.52555338 26.20642509 -4.5859375 24.07421875 C-4.63306885 22.14968872 -4.63306885 22.14968872 -4.68115234 20.1862793 C-4.76379228 16.84612541 -4.76379228 16.84612541 -7 14 C-9.86637282 12.91107661 -9.86637282 12.91107661 -13 13 C-16.10937444 15.23103598 -16.91582953 16.49121285 -17.54589844 20.29980469 C-17.5668457 21.57758789 -17.58779297 22.85537109 -17.609375 24.171875 C-17.62591125 24.8542926 -17.64244751 25.53671021 -17.65948486 26.23980713 C-17.70789839 28.40996354 -17.72931865 30.57941972 -17.75 32.75 C-17.77816562 34.22529552 -17.80809389 35.70055851 -17.83984375 37.17578125 C-17.91365225 40.78370198 -17.96326894 44.39148972 -18 48 C-22.29 48 -26.58 48 -31 48 C-31 32.16 -31 16.32 -31 0 C-26.71 0 -22.42 0 -18 0 C-17.67 0.99 -17.34 1.98 -17 3 C-16.401875 2.525625 -15.80375 2.05125 -15.1875 1.5625 C-10.39404297 -1.86139788 -5.50457302 -1.35946273 0 0 Z " fill="#773F8E" transform="translate(1051,718)"/>
<path d="M0 0 C4.62 0 9.24 0 14 0 C16.97 8.58 19.94 17.16 23 26 C25.97 17.42 28.94 8.84 32 0 C36.62 0 41.24 0 46 0 C33.14893617 37.70212766 33.14893617 37.70212766 28 48 C24.7 48 21.4 48 18 48 C14.15276475 38.96850806 10.57253395 29.84718445 7.06860352 20.67822266 C6.17511554 18.34262678 5.27612243 16.00919492 4.37695312 13.67578125 C3.80695876 12.18762747 3.23728494 10.69935086 2.66796875 9.2109375 C2.39929489 8.51519623 2.13062103 7.81945496 1.85380554 7.10263062 C0 2.22896847 0 2.22896847 0 0 Z " fill="#E79C24" transform="translate(340,718)"/>
<path d="M0 0 C4.29 0 8.58 0 13 0 C13 4.62 13 9.24 13 14 C14.98 14 16.96 14 19 14 C19 17.96 19 21.92 19 26 C17.02 26 15.04 26 13 26 C13.33 33.26 13.66 40.52 14 48 C15.65 48.33 17.3 48.66 19 49 C19 53.29 19 57.58 19 62 C6.773709 62.49399156 6.773709 62.49399156 3.13671875 60.171875 C-0.45163945 56.52447617 -0.11905165 53.26282723 -0.09765625 48.36328125 C-0.09443359 47.06455078 -0.09121094 45.76582031 -0.08789062 44.42773438 C-0.07953531 43.05598892 -0.07107037 41.68424413 -0.0625 40.3125 C-0.05748335 38.92903805 -0.05292073 37.54557437 -0.04882812 36.16210938 C-0.03702529 32.77469605 -0.02056019 29.38736967 0 26 C-1.65 26 -3.3 26 -5 26 C-5 22.04 -5 18.08 -5 14 C-3.35 14 -1.7 14 0 14 C0 9.38 0 4.76 0 0 Z " fill="#EDC019" transform="translate(827,704)"/>
<path d="M0 0 C4.29 0 8.58 0 13 0 C13.33 17.49 13.66 34.98 14 53 C15.65 53.33 17.3 53.66 19 54 C19 58.29 19 62.58 19 67 C6.94642857 67.53571429 6.94642857 67.53571429 3.3125 65.125 C0.68848609 62.71374397 0.04551674 61.96756995 -0.12025452 58.44369507 C-0.11803391 57.36447784 -0.11581329 56.28526062 -0.11352539 55.17333984 C-0.11341209 53.34166763 -0.11341209 53.34166763 -0.11329651 51.47299194 C-0.10818952 50.13564005 -0.10297352 48.79828857 -0.09765625 47.4609375 C-0.0957914 46.09616141 -0.09436781 44.73138466 -0.09336853 43.36660767 C-0.08954863 39.77284907 -0.07972283 36.17913083 -0.06866455 32.58538818 C-0.05843911 28.91891018 -0.05386848 25.25242565 -0.04882812 21.5859375 C-0.0381001 14.39060447 -0.02050756 7.19531303 0 0 Z " fill="#ECA621" transform="translate(460,699)"/>
<path d="M0 0 C0.66 0.33 1.32 0.66 2 1 C1.07213211 2.00894372 0.13231567 3.00690907 -0.8125 4 C-1.59560547 4.8353125 -1.59560547 4.8353125 -2.39453125 5.6875 C-4 7 -4 7 -7 7 C-5.42655961 3.85311922 -2.72148049 2.20034593 0 0 Z " fill="#CBA237" transform="translate(660,719)"/>
<path d="" fill="#F7C113" transform="translate(0,0)"/>
</svg>
