<?xml version="1.0" standalone="no"?>
<!DOCTYPE svg PUBLIC "-//W3C//DTD SVG 20010904//EN"
 "http://www.w3.org/TR/2001/REC-SVG-20010904/DTD/svg10.dtd">
<svg version="1.0" xmlns="http://www.w3.org/2000/svg"
 width="1121.000000pt" height="785.000000pt" viewBox="0 0 1121.000000 785.000000"
 preserveAspectRatio="xMidYMid meet">

<g transform="translate(0.000000,785.000000) scale(0.100000,-0.100000)"
fill="#000000" stroke="none">
<path d="M10 6158 l0 -1686 56 -66 c102 -119 259 -239 423 -321 157 -78 404
-143 611 -160 87 -7 261 7 375 30 563 116 1005 585 1106 1173 10 63 19 118 19
123 0 5 -173 9 -410 9 l-410 0 0 650 0 650 1610 0 1610 0 0 -1590 0 -1590
-640 0 -640 0 0 512 0 513 -53 -116 c-152 -329 -352 -613 -622 -885 -234 -234
-436 -381 -710 -514 -174 -85 -299 -131 -469 -175 -275 -70 -464 -90 -776 -82
-418 11 -643 60 -1067 234 -10 4 -13 -152 -13 -761 l0 -766 2013 0 c1145 0
2078 5 2166 10 185 11 297 30 498 80 506 129 1018 416 1407 790 532 511 854
1179 942 1955 21 184 24 605 5 780 -107 1010 -593 1838 -1391 2370 -392 261
-781 413 -1245 487 -152 24 -344 26 -2878 30 l-1517 3 0 -1687z"/>
<path d="M4 846 c-3 -7 -4 -35 -2 -62 l3 -49 87 -3 88 -3 2 -267 3 -267 63 -3
62 -3 0 271 0 270 90 0 90 0 0 65 0 65 -240 0 c-195 0 -242 -3 -246 -14z"/>
<path d="M630 525 l0 -336 63 3 62 3 3 160 c2 149 4 161 23 178 28 23 74 22
99 -3 18 -18 20 -33 20 -180 l0 -160 66 0 66 0 -4 183 c-3 204 -13 240 -73
277 -48 30 -125 27 -164 -6 l-30 -25 -3 118 -3 118 -62 3 -63 3 0 -336z"/>
<path d="M8990 790 l0 -59 129 -3 128 -3 -133 -210 c-131 -206 -133 -211 -134
-267 l0 -58 215 0 215 0 0 60 0 60 -135 0 c-74 0 -135 3 -135 8 0 4 58 99 130
212 127 201 130 206 130 263 l0 57 -205 0 -205 0 0 -60z"/>
<path d="M1334 651 c-74 -34 -104 -100 -104 -228 0 -120 26 -175 100 -213 78
-39 179 -33 254 17 l39 25 -40 39 c-38 39 -40 40 -69 24 -46 -24 -110 -20
-139 10 -51 50 -39 55 121 55 l146 0 -6 58 c-19 161 -80 232 -201 232 -37 0
-76 -8 -101 -19z m131 -101 c21 -8 55 -60 55 -85 0 -3 -38 -5 -85 -5 -77 0
-85 2 -85 19 0 34 12 53 44 67 38 16 39 16 71 4z"/>
<path d="M9680 647 c-70 -37 -90 -85 -90 -216 0 -91 3 -113 23 -151 32 -65 81
-90 177 -90 91 0 143 25 177 85 20 35 23 54 23 154 0 104 -2 118 -25 157 -34
57 -90 84 -177 84 -48 0 -76 -6 -108 -23z m165 -122 c22 -21 25 -33 25 -93 0
-89 -22 -122 -80 -122 -30 0 -43 6 -60 28 -19 23 -21 37 -18 101 3 62 7 76 27
92 32 27 77 24 106 -6z"/>
<path d="M10361 644 c-30 -25 -31 -25 -31 -5 0 19 -6 21 -65 21 l-65 0 0 -235
0 -235 65 0 65 0 0 164 c0 159 1 165 22 180 12 9 34 16 48 16 14 0 36 -7 48
-16 21 -15 22 -21 22 -180 l0 -164 66 0 66 0 -4 188 c-3 176 -4 189 -26 225
-30 48 -68 67 -131 67 -39 0 -56 -6 -80 -26z"/>
<path d="M10902 649 c-29 -15 -51 -36 -70 -68 -25 -43 -27 -54 -27 -157 0
-104 2 -113 28 -153 37 -56 91 -80 180 -81 48 0 80 6 112 21 40 19 74 46 64
52 -2 1 -21 17 -41 35 -34 32 -37 33 -59 19 -45 -29 -112 -25 -144 8 -50 50
-39 55 116 55 l142 0 -5 79 c-6 97 -38 160 -98 191 -54 27 -141 27 -198 -1z
m152 -111 c14 -13 28 -35 32 -50 l6 -28 -86 0 c-83 0 -86 1 -86 23 1 25 16 49
45 65 31 18 62 14 89 -10z"/>
</g>
</svg>
