<?xml version="1.0" encoding="utf-8"?>
<!-- Generator: Adobe Illustrator 24.3.0, SVG Export Plug-In . SVG Version: 6.00 Build 0)  -->
<svg version="1.1" xmlns="http://www.w3.org/2000/svg" xmlns:xlink="http://www.w3.org/1999/xlink" x="0px" y="0px"
	 viewBox="0 0 283.46 283.46" style="enable-background:new 0 0 283.46 283.46;" xml:space="preserve">
<style type="text/css">
	.st0{fill:#474EA1;}
	.st1{fill:#FFFFFF;}
</style>
<g id="Layer_1">
</g>
<g id="Layer_2">
	<g>
		<g>
			<path class="st0" d="M49.32,163.23c1.01-1.51,1.51-2.47,2.66-2.95c0.86-0.36,1.7-0.29,2.25-0.19c0.25-0.15,0.66-0.33,1.19-0.36
				c1.31-0.08,2.21,0.89,2.35,1.04c-0.49,2.29-0.98,4.58-1.47,6.87h2.62c1.21-2.09,2-3.4,2.55-4.28c0.51-0.81,0.77-1.2,1.09-1.91
				c0.34-0.77,0.41-1.16,0.85-1.84c0.34-0.53,0.6-0.93,1.09-1.21c0.74-0.42,1.5-0.32,2.03-0.24c0.46,0.06,1.07,0.15,1.57,0.45
				v-24.17l21.92,33.2h12.57c-0.05-0.22-0.08-0.48-0.07-0.78c0.04-1.03,0.59-1.74,0.82-2.03c0.18-0.23,0.56-0.69,1.21-0.99
				c0.62-0.29,1.49-0.44,1.66-0.16c0.13,0.21-0.22,0.55-0.12,0.65c0.14,0.15,1.11-0.53,1.8-1.02c1.27-0.91,2.19-1.57,2.83-2.03
				v-59.66h-20.7v33.76l-21.92-33.76h-20.7v64.26C48.03,164.99,48.71,164.14,49.32,163.23z"/>
			<path class="st0" d="M65.11,167.64h2.98v-5.08C67.44,163.66,66.4,165.44,65.11,167.64z"/>
		</g>
		<path class="st0" d="M204.81,159.69c0.42-0.2,0.91-0.37,1.49-0.43c0.69-0.08,1.99-0.22,2.93,0.69c0.15,0.15,0.86,0.87,0.8,1.83
			c-0.12,1.82-2.92,2.7-3.47,2.87c-0.66,0.21-1.26,0.29-1.74,0.31v2.68h20.7v-49.62h17.53v-16.41h-55.58v16.41h17.35V159.69z"/>
		<path class="st0" d="M146.84,167.64c0.08-0.22,0.17-0.45,0.3-0.7c0.26-0.48,0.8-1.51,1.96-2.02c0.34-0.15,1.68-0.74,2.56-0.05
			c0.67,0.53,0.89,1.66,0.46,2.77h12.21l22.2-66.03h-22.01L151,147.03l-13.62-45.42h-22.01l22.2,66.03H146.84z"/>
	</g>
	<g>
		<path class="st1" d="M54.1,161.04l1.23-0.27c0.31,0,0.56,0.07,0.75,0.2c0.19,0.13,0.29,0.26,0.29,0.38c0,0.12-0.03,0.29-0.08,0.51
			c-0.06,0.22-0.51,2.41-1.36,6.54c-0.85,4.14-1.47,7.23-1.86,9.26c1.9-2.58,4.12-5.77,6.66-9.55c2.54-3.78,4.02-6.29,4.45-7.54
			c0.13-0.39,0.31-0.69,0.52-0.91c0.21-0.21,0.4-0.34,0.57-0.38c0.17-0.04,0.43-0.06,0.77-0.06s0.76,0.08,1.23,0.23
			s0.71,0.4,0.71,0.75c0,0.66-0.98,2.56-2.94,5.71c-1.96,3.14-4.19,6.48-6.7,10.02s-4.61,6.33-6.3,8.39
			c-0.3,0.37-0.67,0.55-1.1,0.55s-0.88-0.08-1.36-0.23s-0.71-0.42-0.71-0.8c0-1.23,1.08-7.14,3.24-17.74
			c-1.85,2.39-4.09,5.73-6.73,10c-2.75,4.42-4.31,7.16-4.67,8.22c-0.2,0.64-0.43,1.01-0.69,1.11c-0.18,0.08-0.37,0.12-0.57,0.12
			l-1.33,0.15c-0.26,0-0.5-0.07-0.71-0.22s-0.33-0.3-0.33-0.45c0-0.45,0.62-1.78,1.85-4.01s2.68-4.65,4.33-7.26
			c1.65-2.61,3.38-5.15,5.18-7.63c1.8-2.47,3.19-4.13,4.18-4.98c0.2-0.18,0.43-0.27,0.69-0.27L54.1,161.04z"/>
		<path class="st1" d="M72.51,172.34c0,0.74-0.3,1.39-0.9,1.95c-0.6,0.56-1.28,0.84-2.04,0.84c-0.25,0-0.41-0.06-0.49-0.18
			c-0.08-0.12-0.12-0.27-0.12-0.46s0.02-0.38,0.07-0.55c-0.4,0.13-0.85,0.34-1.34,0.62c-0.49,0.28-1.1,0.69-1.81,1.24
			c-0.72,0.55-1.07,0.96-1.07,1.22c0,0.09,0.13,0.13,0.39,0.13c0.26,0,0.67-0.09,1.22-0.28c0.55-0.18,0.93-0.28,1.15-0.28
			s0.36,0.01,0.43,0.03c0.15,0.08,0.3,0.25,0.47,0.51c0.17,0.26,0.25,0.47,0.25,0.62c0,0.15-0.15,0.35-0.44,0.6
			c-0.29,0.25-0.62,0.43-0.99,0.56s-0.62,0.23-0.74,0.29c-2.36,1.32-3.54,2.23-3.54,2.72c0,0.87,0.74,1.31,2.23,1.31
			c0.95,0,1.91-0.3,2.87-0.91c0.82-0.51,1.55-1.04,2.21-1.57c0.65-0.53,1.07-0.86,1.24-0.98c0.17-0.12,0.3-0.18,0.39-0.18
			c0.29,0,0.44,0.32,0.44,0.97c0,0.65-0.04,1.08-0.12,1.28c-0.08,0.21-0.3,0.46-0.67,0.76c-2.39,1.95-4.66,2.92-6.8,2.92
			c-1.14,0-2.05-0.16-2.74-0.47c-1.25-0.57-1.88-1.44-1.88-2.62c0-1.54,1.07-2.71,3.21-3.51c-0.43-0.19-0.7-0.43-0.82-0.73
			c-0.12-0.3-0.18-0.77-0.18-1.43c0-0.65,0.3-1.35,0.91-2.08c0.61-0.73,1.36-1.33,2.24-1.8c1.97-1.06,3.73-1.59,5.27-1.59
			c0.37,0,0.74,0.09,1.12,0.27S72.51,172.01,72.51,172.34z"/>
		<path class="st1" d="M89.31,172.42l-0.2-0.81c0-0.46,0.16-0.82,0.48-1.08s0.72-0.39,1.2-0.39c0.94,0,1.41,0.6,1.41,1.8
			c0,0.86-0.43,2.05-1.28,3.57c-0.85,1.52-1.85,2.98-3.01,4.4c-1.16,1.42-2.39,2.65-3.68,3.69c-1.3,1.05-2.3,1.57-3,1.57
			c-0.7,0-1.19-0.19-1.49-0.57c-0.29-0.38-0.44-0.75-0.44-1.1s0.02-0.69,0.05-1c0.12-1.1,0.43-2.14,0.91-3.14
			c-1.2,1.57-2.48,2.97-3.86,4.22c-1.38,1.25-2.53,1.87-3.46,1.87c-0.45,0-0.81-0.13-1.07-0.4s-0.4-0.72-0.4-1.37
			s0.39-1.85,1.16-3.62c0.77-1.77,1.51-3.2,2.22-4.27c-0.26,0.16-0.48,0.23-0.68,0.23s-0.41-0.11-0.64-0.33
			c-0.23-0.22-0.34-0.39-0.34-0.51s0.08-0.3,0.25-0.54c0.17-0.23,0.81-0.81,1.93-1.74c1.12-0.92,1.88-1.38,2.3-1.38
			s0.81,0.08,1.18,0.24c0.38,0.16,0.56,0.37,0.56,0.65c0,0.27-0.78,1.87-2.33,4.79s-2.33,4.5-2.33,4.75c0,0.03,0.01,0.05,0.03,0.05
			c0.23,0,1.41-1.2,3.52-3.59c2.11-2.39,3.77-4.36,4.98-5.91c0.17-0.28,0.42-0.42,0.76-0.42l0.15,0.02l0.92-0.18
			c0.15,0,0.29,0.06,0.43,0.17c0.14,0.11,0.21,0.21,0.21,0.3c0,0.09-0.2,0.49-0.6,1.21c-0.4,0.72-1.04,2.07-1.94,4.06
			c-0.9,1.99-1.34,3.39-1.34,4.2c0,0.2,0.07,0.3,0.22,0.3c0.43,0,1.31-0.77,2.66-2.31c1.35-1.54,2.45-3.01,3.3-4.42
			C88.89,174,89.31,173,89.31,172.42z"/>
		<path class="st1" d="M124.52,161.14l-0.55,0.12c-0.12,0-0.18-0.08-0.18-0.23c0-0.16,0.04-0.26,0.13-0.3
			c1.07-0.62,2.1-0.92,3.09-0.92c0.44,0,0.77,0.17,1,0.5c0.23,0.33,0.34,0.77,0.34,1.33s-0.39,1.52-1.17,2.89
			c-0.78,1.38-1.82,2.93-3.11,4.67s-2.94,3.64-4.93,5.71c-1.99,2.06-3.99,3.88-6,5.45c-2.01,1.57-3.8,2.76-5.39,3.57
			s-3.08,1.21-4.49,1.21c-0.91,0-1.59-0.31-2.04-0.93s-0.68-1.33-0.68-2.11c0-0.79,0.27-1.8,0.8-3.04s1.17-2.46,1.92-3.67
			c0.75-1.21,1.62-2.49,2.6-3.83c1.48-2.05,3.03-4.02,4.65-5.92c-1.8,1.5-3.03,2.38-3.68,2.63c-0.65,0.26-1.22,0.39-1.69,0.39
			c-0.48,0-0.84-0.2-1.11-0.6c-0.26-0.4-0.39-0.83-0.39-1.29s0.19-0.93,0.56-1.39c0.38-0.46,0.73-0.7,1.07-0.7
			c0.12,0,0.18,0.04,0.18,0.13s-0.04,0.19-0.13,0.31s-0.13,0.2-0.13,0.24c0,0.12,0.1,0.18,0.29,0.18c0.19,0,0.48-0.08,0.86-0.25
			s1.32-0.75,2.83-1.76s2.61-1.84,3.31-2.5c0.28-0.25,0.68-0.37,1.2-0.37c0.52,0,1.04,0.13,1.57,0.38s0.79,0.51,0.79,0.76
			c0,0.06-0.01,0.11-0.03,0.16c-0.02,0.05-0.04,0.16-0.07,0.34s-0.11,0.38-0.26,0.62c-0.15,0.24-1.31,1.88-3.48,4.91
			c-5.43,7.56-8.14,12.03-8.14,13.41c0,0.5,0.2,0.75,0.59,0.75c0.54,0,1.58-0.49,3.12-1.47c1.54-0.98,2.98-2.06,4.3-3.26
			c1.32-1.19,2.62-2.45,3.89-3.77c1.28-1.32,2.59-2.76,3.94-4.31c1.35-1.55,2.5-3.06,3.44-4.51c0.94-1.45,1.41-2.56,1.41-3.31
			C124.74,161.21,124.67,161.14,124.52,161.14z"/>
		<path class="st1" d="M129.2,181.11c0,0.34-0.03,0.58-0.1,0.72c-0.55,1.12-1.42,2.02-2.62,2.71c-1.2,0.69-2.24,1.03-3.12,1.03
			s-1.64-0.3-2.28-0.89s-0.96-1.2-0.96-1.81s0.31-1.51,0.92-2.69s1.23-2.26,1.85-3.25c0.61-1,0.92-1.54,0.92-1.62
			s-0.11-0.25-0.34-0.5s-0.34-0.43-0.34-0.54c0-0.12,0.23-0.42,0.7-0.92s1.03-0.99,1.69-1.48c0.67-0.49,1.17-0.73,1.53-0.73
			s0.67,0.16,0.95,0.47c0.28,0.31,0.42,0.6,0.42,0.86c0,0.26-1.33,2.68-3.99,7.27c-0.03,0.07-0.13,0.22-0.28,0.45
			s-0.27,0.42-0.35,0.57s-0.18,0.33-0.29,0.55c-0.22,0.45-0.34,0.82-0.34,1.12c0,0.38,0.26,0.57,0.77,0.57s1.05-0.18,1.6-0.53
			s1.03-0.74,1.43-1.17c1.05-1.13,1.65-1.7,1.8-1.7C129.06,179.6,129.2,180.11,129.2,181.11z M131.92,166.46
			c0,0.64-0.3,1.28-0.89,1.92c-0.59,0.64-1.21,0.96-1.85,0.96c-0.64,0-0.96-0.34-0.96-1.01s0.28-1.31,0.85-1.92
			c0.56-0.61,1.19-0.91,1.87-0.91c0.3,0,0.54,0.08,0.72,0.25C131.83,165.92,131.92,166.16,131.92,166.46z"/>
		<path class="st1" d="M129.81,181.53l-0.02,0.27c0,0.28,0.11,0.52,0.32,0.72s0.41,0.3,0.59,0.3c1.34,0,2.53-0.2,3.57-0.6
			c1.04-0.4,1.55-0.81,1.55-1.21c0-0.19-0.19-0.35-0.56-0.5c-0.38-0.14-1.01-0.31-1.9-0.52c-0.89-0.21-1.54-0.37-1.94-0.49
			c-0.4-0.12-0.72-0.23-0.96-0.33s-0.48-0.24-0.72-0.42c-0.53-0.37-0.79-0.92-0.79-1.65s0.27-1.46,0.81-2.18
			c0.54-0.72,1.22-1.34,2.04-1.85c0.82-0.51,1.7-0.97,2.63-1.36c1.86-0.77,3.42-1.16,4.68-1.16c1.24,0,2.01,0.27,2.3,0.81
			c0.09,0.19,0.13,0.4,0.13,0.64v0.12c0,0.59-0.13,1.06-0.38,1.39c-0.25,0.34-0.65,0.64-1.19,0.91s-0.97,0.4-1.29,0.4
			s-0.52-0.02-0.6-0.07c-0.08-0.04-0.15-0.1-0.21-0.18c-0.06-0.07-0.13-0.13-0.21-0.16c-0.08-0.03-0.13-0.12-0.13-0.25
			c0-0.13,0.06-0.27,0.17-0.41s0.19-0.29,0.23-0.44c-0.74,0.03-1.51,0.2-2.32,0.51c-0.81,0.31-1.5,0.65-2.07,1.03
			c-0.58,0.38-1.05,0.74-1.44,1.09s-0.57,0.6-0.57,0.76s0.26,0.29,0.77,0.39c2.32,0.46,3.84,0.86,4.56,1.19
			c0.73,0.34,1.23,0.72,1.51,1.14c0.28,0.43,0.42,0.81,0.42,1.16c0,0.72-0.29,1.39-0.86,2.03c-0.57,0.64-1.28,1.16-2.11,1.56
			c-1.8,0.88-3.37,1.33-4.71,1.33s-2.26-0.2-2.77-0.61c-0.51-0.41-0.76-0.89-0.76-1.45s0.14-1.08,0.43-1.55
			c0.29-0.48,0.65-0.71,1.1-0.71C129.58,181.18,129.81,181.3,129.81,181.53z"/>
		<path class="st1" d="M148.8,181.11c0,0.34-0.03,0.58-0.1,0.72c-0.55,1.12-1.42,2.02-2.62,2.71c-1.2,0.69-2.24,1.03-3.12,1.03
			c-0.88,0-1.64-0.3-2.28-0.89s-0.96-1.2-0.96-1.81s0.31-1.51,0.92-2.69s1.23-2.26,1.85-3.25c0.61-1,0.92-1.54,0.92-1.62
			s-0.12-0.25-0.34-0.5s-0.34-0.43-0.34-0.54c0-0.12,0.23-0.42,0.7-0.92c0.46-0.5,1.03-0.99,1.7-1.48c0.67-0.49,1.17-0.73,1.53-0.73
			c0.35,0,0.67,0.16,0.95,0.47c0.28,0.31,0.42,0.6,0.42,0.86c0,0.26-1.33,2.68-3.99,7.27c-0.03,0.07-0.13,0.22-0.28,0.45
			c-0.15,0.23-0.27,0.42-0.35,0.57s-0.18,0.33-0.29,0.55c-0.22,0.45-0.34,0.82-0.34,1.12c0,0.38,0.26,0.57,0.77,0.57
			c0.51,0,1.05-0.18,1.6-0.53s1.03-0.74,1.43-1.17c1.05-1.13,1.65-1.7,1.8-1.7C148.66,179.6,148.8,180.11,148.8,181.11z
			 M151.52,166.46c0,0.64-0.3,1.28-0.89,1.92c-0.59,0.64-1.21,0.96-1.85,0.96s-0.96-0.34-0.96-1.01s0.28-1.31,0.85-1.92
			c0.56-0.61,1.19-0.91,1.87-0.91c0.3,0,0.54,0.08,0.72,0.25C151.43,165.92,151.52,166.16,151.52,166.46z"/>
		<path class="st1" d="M158.96,172.1c0.33,0,0.68,0.15,1.03,0.45c0.35,0.3,0.53,0.76,0.53,1.38s-0.22,1.43-0.65,2.42
			s-1.04,2-1.8,3.02s-1.6,1.99-2.51,2.89c-0.91,0.9-1.9,1.64-2.95,2.21c-1.06,0.58-2.02,0.86-2.88,0.86s-1.55-0.27-2.07-0.81
			c-0.52-0.54-0.78-1.3-0.78-2.27s0.24-2.04,0.71-3.21s1.09-2.21,1.84-3.11c0.75-0.9,1.56-1.71,2.43-2.42
			c1.82-1.47,3.42-2.2,4.8-2.2c0.62,0,1.08,0.15,1.39,0.45c0.11,0.1,0.17,0.19,0.17,0.27v0.1
			C158.38,172.11,158.62,172.1,158.96,172.1z M157.26,174.33h-0.12c-0.39,0-0.59-0.29-0.59-0.86c-0.82,0.27-1.67,0.74-2.57,1.41
			s-1.7,1.47-2.4,2.38c-1.43,1.83-2.16,3.38-2.18,4.65c0,0.63,0.23,0.94,0.69,0.94s1.14-0.3,2.05-0.91c0.91-0.6,1.8-1.47,2.69-2.58
			c0.89-1.12,1.55-2.09,2-2.91c0.44-0.82,0.66-1.38,0.66-1.68C157.5,174.48,157.42,174.33,157.26,174.33z"/>
		<path class="st1" d="M168.91,182.3c0,0.49,0.33,0.74,1.01,0.74c0.36,0,0.81-0.18,1.35-0.54s1.03-0.75,1.47-1.17
			c1.16-1.15,1.82-1.73,1.98-1.73c0.29,0,0.44,0.42,0.44,1.26c0,0.84-0.26,1.42-0.79,1.73c-1.6,1.44-2.84,2.32-3.71,2.63
			c-0.49,0.17-1.04,0.25-1.63,0.23c-0.59-0.01-1.18-0.27-1.76-0.77c-0.58-0.5-0.87-1.12-0.87-1.84s0.19-1.54,0.57-2.46
			c0.38-0.92,0.77-1.7,1.17-2.36c0.4-0.65,0.89-1.42,1.47-2.28c0.58-0.87,0.89-1.41,0.92-1.62l-0.03-0.03
			c-0.37,0.03-1.28,0.76-2.74,2.18c-1.46,1.42-2.67,2.66-3.62,3.71s-2.09,2.46-3.41,4.21c-0.37,0.48-0.67,0.72-0.91,0.72
			c-0.24,0-0.55-0.08-0.95-0.23c-0.4-0.15-0.64-0.26-0.73-0.33c-0.09-0.07-0.13-0.17-0.13-0.3c0-0.13,0.04-0.3,0.12-0.5
			c0.08-0.2,0.15-0.36,0.23-0.49c0.07-0.13,0.19-0.33,0.36-0.6c0.17-0.27,0.5-0.84,1-1.7c0.5-0.87,1.26-2.16,2.29-3.88
			c1.03-1.72,1.64-2.76,1.85-3.12c0.42-0.74,0.77-1.28,1.04-1.61c0.5-0.64,1.35-0.96,2.55-0.96c0.27,0,0.4,0.17,0.4,0.5
			c0,0.53-0.49,1.52-1.46,2.97l-0.71,1.06c1.94-2.15,3.57-3.51,4.9-4.08c0.65-0.28,1.23-0.42,1.75-0.42s0.93,0.14,1.24,0.42
			c0.31,0.28,0.46,0.59,0.46,0.93c0,0.34-0.12,0.75-0.35,1.23c-0.23,0.48-0.47,0.9-0.71,1.28c-0.24,0.38-0.56,0.85-0.95,1.42
			s-0.6,0.88-0.64,0.93c-0.03,0.05-0.12,0.18-0.26,0.4c-0.14,0.22-0.24,0.38-0.31,0.48c-0.07,0.1-0.18,0.28-0.34,0.53
			c-0.16,0.25-0.28,0.46-0.38,0.63c-0.09,0.17-0.21,0.38-0.35,0.62c-0.14,0.25-0.25,0.46-0.33,0.64c-0.08,0.18-0.17,0.38-0.26,0.59
			C168.99,181.72,168.91,182.05,168.91,182.3z"/>
		<path class="st1" d="M188.61,179.55l-0.08,0.35c0,0.07,0.03,0.13,0.09,0.18c0.06,0.06,0.14,0.08,0.23,0.08s0.16-0.04,0.22-0.13
			c1.67-2.22,3.05-4.17,4.15-5.85s1.9-2.92,2.41-3.72c0.51-0.79,0.91-1.43,1.22-1.9c0.81-1.23,1.61-2.33,2.4-3.31
			c-3.02,0.76-5.39,1.14-7.1,1.14s-2.94-0.11-3.69-0.33c-0.75-0.22-1.24-0.46-1.48-0.74c-0.23-0.27-0.35-0.55-0.35-0.84
			c0-0.29,0.01-0.56,0.03-0.83c0.04-0.56,0.38-1.02,1.01-1.38c0.63-0.36,1.16-0.54,1.57-0.54s0.62,0.06,0.62,0.18
			s-0.09,0.29-0.28,0.5s-0.28,0.35-0.28,0.43c0,0.36,1.29,0.54,3.88,0.54c2.58,0,5.55-0.34,8.91-1.02c1.92-1.57,3.58-2.35,4.98-2.35
			c0.93,0,1.54,0.26,1.85,0.79c0.2,0.31,0.3,0.63,0.3,0.94s-0.18,0.63-0.55,0.94c-0.36,0.31-0.85,0.58-1.47,0.81
			c-1.12,0.4-2.44,0.72-3.96,0.96c-0.64,0.82-1.54,2.09-2.71,3.81c-1.17,1.72-1.97,2.89-2.39,3.49c-0.42,0.6-1.11,1.68-2.06,3.22
			s-1.76,2.88-2.46,4c-0.69,1.12-1.43,2.23-2.22,3.33c-1.6,2.26-3.03,3.39-4.28,3.39c-0.53,0-0.98-0.14-1.36-0.42
			c-0.38-0.28-0.57-0.74-0.57-1.37s0.35-1.42,1.05-2.37s1.21-1.55,1.54-1.82s0.54-0.4,0.66-0.4
			C188.55,179.33,188.61,179.41,188.61,179.55z"/>
		<path class="st1" d="M211.74,172.34c0,0.74-0.3,1.39-0.9,1.95c-0.6,0.56-1.28,0.84-2.04,0.84c-0.25,0-0.41-0.06-0.49-0.18
			c-0.08-0.12-0.12-0.27-0.12-0.46s0.02-0.38,0.07-0.55c-0.4,0.13-0.85,0.34-1.34,0.62c-0.49,0.28-1.1,0.69-1.81,1.24
			c-0.72,0.55-1.07,0.96-1.07,1.22c0,0.09,0.13,0.13,0.39,0.13c0.26,0,0.67-0.09,1.22-0.28c0.55-0.18,0.93-0.28,1.15-0.28
			c0.22,0,0.36,0.01,0.43,0.03c0.15,0.08,0.3,0.25,0.47,0.51c0.17,0.26,0.25,0.47,0.25,0.62c0,0.15-0.15,0.35-0.44,0.6
			s-0.62,0.43-0.99,0.56s-0.62,0.23-0.74,0.29c-2.36,1.32-3.54,2.23-3.54,2.72c0,0.87,0.74,1.31,2.23,1.31
			c0.95,0,1.91-0.3,2.87-0.91c0.82-0.51,1.55-1.04,2.21-1.57s1.07-0.86,1.24-0.98c0.17-0.12,0.3-0.18,0.39-0.18
			c0.29,0,0.44,0.32,0.44,0.97c0,0.65-0.04,1.08-0.12,1.28s-0.3,0.46-0.67,0.76c-2.39,1.95-4.66,2.92-6.8,2.92
			c-1.14,0-2.05-0.16-2.74-0.47c-1.25-0.57-1.88-1.44-1.88-2.62c0-1.54,1.07-2.71,3.21-3.51c-0.42-0.19-0.7-0.43-0.82-0.73
			c-0.12-0.3-0.18-0.77-0.18-1.43c0-0.65,0.3-1.35,0.92-2.08c0.61-0.73,1.36-1.33,2.24-1.8c1.97-1.06,3.73-1.59,5.27-1.59
			c0.37,0,0.74,0.09,1.12,0.27S211.74,172.01,211.74,172.34z"/>
		<path class="st1" d="M223.9,172.13c0.85,0,1.28,0.29,1.28,0.87c0,0.31-0.07,0.54-0.22,0.69s-0.46,0.63-0.93,1.45
			s-1,1.87-1.58,3.16s-0.95,2.38-1.12,3.28c-0.03,0.11-0.05,0.27-0.05,0.47c0,0.62,0.17,0.92,0.5,0.92s0.73-0.16,1.19-0.48
			c0.46-0.32,0.87-0.66,1.23-1.02c0.36-0.36,0.71-0.74,1.05-1.12c0.34-0.38,0.54-0.6,0.61-0.65s0.17-0.08,0.3-0.08
			c0.21,0,0.34,0.16,0.39,0.49c0.04,0.33,0.07,0.66,0.07,1.01c0,0.35-0.03,0.59-0.1,0.72c-0.32,0.64-1.04,1.4-2.14,2.3
			c-1.1,0.89-2.1,1.34-3,1.34s-1.56-0.27-1.99-0.82c-0.43-0.55-0.64-1.15-0.64-1.82s0.11-1.25,0.33-1.75
			c-0.93,1.21-1.99,2.23-3.2,3.07c-1.2,0.84-2.18,1.26-2.95,1.26s-1.38-0.23-1.86-0.69c-0.62-0.57-0.92-1.36-0.92-2.37
			s0.23-2.03,0.68-3.05s1.05-1.96,1.79-2.8s1.55-1.61,2.43-2.31c1.86-1.45,3.57-2.18,5.13-2.18c0.6,0,1.1,0.1,1.48,0.3
			c0.38,0.2,0.62,0.45,0.72,0.75c0.27-0.4,0.5-0.66,0.68-0.76S223.53,172.13,223.9,172.13z M221.67,174c-1.91,0-3.89,1.06-5.94,3.19
			c-0.73,0.76-1.4,1.67-2,2.74c-0.61,1.06-0.92,1.79-0.92,2.18c0,0.39,0.11,0.59,0.34,0.59c0.31,0,1.19-0.62,2.62-1.85
			c1.43-1.24,2.38-2.15,2.85-2.73C219.13,177.46,220.15,176.09,221.67,174z"/>
		<path class="st1" d="M225.09,184.99l-0.82-0.03h-0.3c-0.11-0.03-0.23-0.1-0.36-0.2c-0.13-0.1-0.23-0.17-0.29-0.22
			s-0.1-0.13-0.1-0.24s0.04-0.32,0.13-0.61c2.18-4.8,4.29-8.64,6.33-11.51c0.22-0.31,0.58-0.55,1.08-0.71s0.98-0.24,1.45-0.24
			c0.28,0,0.42,0.22,0.42,0.65c0,0.12-0.04,0.29-0.13,0.5c-0.09,0.21-0.31,0.54-0.67,1.01c-0.36,0.47-0.78,1.01-1.28,1.61
			s-0.77,0.95-0.84,1.04c1.53-1.59,2.92-2.77,4.15-3.55s2.13-1.17,2.69-1.17s0.98,0.16,1.28,0.48c0.3,0.32,0.44,0.66,0.44,1.02
			s-0.02,0.67-0.08,0.91c-0.05,0.24-0.14,0.49-0.28,0.75c-0.13,0.26-0.25,0.49-0.34,0.67s-0.25,0.43-0.48,0.72
			c-0.22,0.3-0.38,0.5-0.46,0.61c-0.08,0.11-0.26,0.32-0.52,0.64c-0.26,0.31-0.41,0.49-0.43,0.52c0.31-0.31,0.75-0.78,1.31-1.39
			s1.03-1.13,1.42-1.54c0.39-0.41,0.87-0.88,1.45-1.4c0.58-0.52,1.12-0.94,1.63-1.27c1.21-0.76,2.43-1.14,3.67-1.14
			c0.42,0,0.78,0.13,1.07,0.4c0.29,0.27,0.44,0.59,0.44,0.96s-0.45,1.27-1.36,2.68c-0.91,1.42-1.81,2.84-2.71,4.26
			c-0.9,1.43-1.35,2.32-1.35,2.69c0,0.51,0.09,0.82,0.29,0.92s0.42,0.13,0.69,0.11c0.27-0.02,0.65-0.2,1.13-0.52
			c0.49-0.32,0.92-0.66,1.3-1.01c0.62-0.56,1.19-1.1,1.71-1.63c0.11-0.1,0.24-0.15,0.37-0.15c0.21,0,0.34,0.16,0.39,0.49
			c0.04,0.33,0.07,0.66,0.07,1.01c0,0.35-0.03,0.59-0.1,0.72c-0.32,0.63-1.04,1.39-2.15,2.3s-2.17,1.36-3.19,1.36
			c-0.12,0-0.21-0.01-0.27-0.02c-1.15-0.11-1.95-0.43-2.39-0.95c-0.44-0.52-0.66-1.14-0.66-1.85s0.24-1.58,0.73-2.6
			c0.49-1.02,1.02-1.94,1.6-2.77c0.58-0.83,1.12-1.58,1.6-2.24c0.49-0.67,0.73-1.03,0.73-1.08c0-0.06-0.04-0.08-0.13-0.08
			c-0.35,0-1.12,0.56-2.32,1.68c-2.05,1.91-3.82,3.76-5.3,5.54c-0.39,0.47-1.32,1.66-2.79,3.58c-0.17,0.22-0.43,0.33-0.8,0.33
			s-0.74-0.07-1.13-0.21s-0.59-0.32-0.59-0.55c0-0.11,0.89-1.68,2.67-4.71c1.78-3.03,2.67-4.68,2.67-4.95c0-0.27-0.17-0.41-0.5-0.41
			c-0.33,0-1.01,0.49-2.04,1.48c-2.83,2.71-5.02,5.4-6.58,8.07c-0.1,0.16-0.3,0.4-0.59,0.74
			C225.39,184.82,225.2,184.99,225.09,184.99z"/>
	</g>
</g>
</svg>
